<?xml version="1.0" encoding="UTF-8" standalone="no"?>
<!-- Created with Inkscape (http://www.inkscape.org/) -->

<svg
   xmlns:dc="http://purl.org/dc/elements/1.1/"
   xmlns:cc="http://creativecommons.org/ns#"
   xmlns:rdf="http://www.w3.org/1999/02/22-rdf-syntax-ns#"
   xmlns:svg="http://www.w3.org/2000/svg"
   xmlns="http://www.w3.org/2000/svg"
   version="1.1"
   width="35.0312"
   height="57.982132"
   id="svg4053">
  <defs
     id="defs4055" />
  <metadata
     id="metadata4058">
    <rdf:RDF>
      <cc:Work
         rdf:about="">
        <dc:format>image/svg+xml</dc:format>
        <dc:type
           rdf:resource="http://purl.org/dc/dcmitype/StillImage" />
        <dc:title></dc:title>
      </cc:Work>
    </rdf:RDF>
  </metadata>
  <g
     transform="translate(-348.19869,-563.37112)"
     id="layer1">
    <path
       d="m 359.38469,601.69355 0,-2.8415 c 0,-1.3055 0.128,-2.4831 0.384,-3.5326 0.2816,-1.0751 0.6912,-2.0863 1.2288,-3.0335 0.5631,-0.9727 1.2799,-1.907 2.1503,-2.803 0.8703,-0.9215 1.9198,-1.8687 3.1486,-2.8415 1.0751,-0.8447 1.9839,-1.5999 2.7263,-2.2655 0.7423,-0.6655 1.3439,-1.3183 1.8047,-1.9583 0.4607,-0.6655 0.7935,-1.3567 0.9983,-2.0735 0.2048,-0.7167 0.3072,-1.5486 0.3072,-2.4958 0,-1.4591 -0.4992,-2.6623 -1.4975,-3.6094 -0.9728,-0.9472 -2.4703,-1.4207 -4.4926,-1.4208 -6.1316,-0.032 -8.2967,4.5428 -9.2839,7.0732 l -8.6602,-2.958 c 0.5993,-6.6154 7.3245,-13.6648 18.0977,-13.5611 2.611,10e-5 4.9661,0.32 7.0652,0.96 2.0991,0.6144 3.8782,1.5231 5.3374,2.7262 1.4591,1.2032 2.5726,2.6623 3.3406,4.3774 0.7935,1.7152 1.1903,3.6735 1.1903,5.8749 0,1.6128 -0.1792,3.0591 -0.5375,4.339 -0.3585,1.2543 -0.896,2.4319 -1.6128,3.5326 -0.6912,1.0752 -1.5743,2.1247 -2.6494,3.1486 -1.0496,0.9984 -2.2783,2.0608 -3.6862,3.1871 -1.0752,0.8448 -1.9584,1.5871 -2.6495,2.2271 -0.6656,0.6144 -1.1904,1.2031 -1.5743,1.7663 -0.384,0.5632 -0.6528,1.1519 -0.8064,1.7663 -0.128,0.5888 -0.192,1.2927 -0.192,2.1119 l 0,2.3039 -10.1371,0 m -1.2671,13.1321 c 0,-1.2032 0.1664,-2.2143 0.4992,-3.0335 0.3584,-0.8447 0.8447,-1.5231 1.4591,-2.0351 0.6144,-0.5119 1.3311,-0.8831 2.1503,-1.1135 0.8447,-0.2304 1.7407,-0.3456 2.6879,-0.3456 0.8959,0 1.7407,0.1152 2.5342,0.3456 0.8192,0.2304 1.5359,0.6016 2.1503,1.1135 0.6144,0.512 1.1008,1.1904 1.4592,2.0351 0.3583,0.8192 0.5375,1.8303 0.5375,3.0335 0,1.1519 -0.1792,2.1375 -0.5375,2.9566 -0.3584,0.8192 -0.8448,1.4976 -1.4592,2.0351 -0.6144,0.5376 -1.3311,0.9216 -2.1503,1.152 -0.7935,0.256 -1.6383,0.3839 -2.5342,0.3839 -0.9472,0 -1.8432,-0.1279 -2.6879,-0.3839 -0.8192,-0.2304 -1.5359,-0.6144 -2.1503,-1.152 -0.6144,-0.5375 -1.1007,-1.2159 -1.4591,-2.0351 -0.3328,-0.8191 -0.4992,-1.8047 -0.4992,-2.9566"
       id="path4040"
       style="font-size:78.63919067px;font-style:normal;font-variant:normal;font-weight:bold;font-stretch:normal;line-height:125%;letter-spacing:0px;word-spacing:0px;fill:#000000;fill-opacity:1;stroke:none;font-family:Droid Sans;-inkscape-font-specification:Droid Sans Bold" />
  </g>
</svg>
