<?xml version="1.0" encoding="UTF-8" standalone="no"?>
<!-- Created with Inkscape (http://www.inkscape.org/) -->

<svg
   xmlns:dc="http://purl.org/dc/elements/1.1/"
   xmlns:cc="http://creativecommons.org/ns#"
   xmlns:rdf="http://www.w3.org/1999/02/22-rdf-syntax-ns#"
   xmlns:svg="http://www.w3.org/2000/svg"
   xmlns="http://www.w3.org/2000/svg"
   xmlns:sodipodi="http://sodipodi.sourceforge.net/DTD/sodipodi-0.dtd"
   xmlns:inkscape="http://www.inkscape.org/namespaces/inkscape"
   width="300"
   height="30.886627"
   id="svg2999"
   version="1.1"
   inkscape:version="0.48.4 r9939"
   sodipodi:docname="blist.svg">
  <defs
     id="defs3001" />
  <sodipodi:namedview
     id="base"
     pagecolor="#ffffff"
     bordercolor="#666666"
     borderopacity="1.0"
     inkscape:pageopacity="0.0"
     inkscape:pageshadow="2"
     inkscape:zoom="0.35"
     inkscape:cx="1027.6889"
     inkscape:cy="-190.56297"
     inkscape:document-units="px"
     inkscape:current-layer="layer1"
     showgrid="false"
     showguides="true"
     inkscape:guide-bbox="true"
     inkscape:snap-bbox="true"
     inkscape:bbox-paths="true"
     inkscape:snap-bbox-edge-midpoints="true"
     inkscape:snap-bbox-midpoints="true"
     inkscape:bbox-nodes="true"
     inkscape:object-paths="true"
     inkscape:object-nodes="true"
     inkscape:snap-smooth-nodes="true"
     inkscape:snap-midpoints="true"
     inkscape:snap-center="true"
     inkscape:snap-page="true"
     inkscape:snap-object-midpoints="true"
     inkscape:snap-intersection-paths="true"
     inkscape:window-width="1440"
     inkscape:window-height="848"
     inkscape:window-x="0"
     inkscape:window-y="27"
     inkscape:window-maximized="1"
     fit-margin-top="0"
     fit-margin-left="0"
     fit-margin-right="0"
     fit-margin-bottom="0" />
  <metadata
     id="metadata3004">
    <rdf:RDF>
      <cc:Work
         rdf:about="">
        <dc:format>image/svg+xml</dc:format>
        <dc:type
           rdf:resource="http://purl.org/dc/dcmitype/StillImage" />
        <dc:title></dc:title>
      </cc:Work>
    </rdf:RDF>
  </metadata>
  <g
     inkscape:label="Calque 1"
     inkscape:groupmode="layer"
     id="layer1"
     transform="translate(1504.422,-413.36375)">
    <g
       id="g3077"
       transform="matrix(0.98616749,0,0,0.98616749,-20.809937,6.145099)">
      <g
         transform="matrix(0.23850056,0,0,0.23850056,-1145.6165,338.29641)"
         id="text3007"
         style="font-size:180.13598633px;font-style:normal;font-weight:normal;line-height:125%;letter-spacing:0px;word-spacing:0px;fill:#000000;fill-opacity:1;stroke:none;font-family:Sans">
        <path
           inkscape:connector-curvature="0"
           id="path3074"
           d="m -1222.2569,381.53701 0,17.67936 30.5211,0 0,12.66581 -30.5211,0 0,17.76732 28.498,0 c 9.558,1e-5 16.6238,-1.96436 21.1977,-5.89312 4.6323,-3.98736 6.9485,-10.05639 6.9486,-18.2071 -10e-5,-8.20928 -2.3163,-14.24899 -6.9486,-18.11915 -4.5739,-3.92869 -11.6397,-5.89306 -21.1977,-5.89312 l -28.498,0 m 0,-54.00562 0,39.58067 26.2991,0 c 8.6784,7e-5 15.1285,-1.61247 19.3506,-4.83764 4.2805,-3.28364 6.4207,-8.26787 6.4208,-14.95269 -10e-5,-6.626 -2.1403,-11.5809 -6.4208,-14.86474 -4.2221,-3.28362 -10.6722,-4.92548 -19.3506,-4.9256 l -26.2991,0 m -17.7674,-14.60086 45.3859,0 c 13.5453,1.3e-4 23.9828,2.81475 31.3127,8.44387 7.3296,5.62937 10.9945,13.63345 10.9946,24.01227 -10e-5,8.0335 -1.8765,14.42504 -5.6292,19.17463 -3.753,4.74976 -9.2649,7.71097 -16.536,8.88366 8.737,1.87649 15.5097,5.80523 20.3181,11.78624 4.8669,5.9225 7.3003,13.3402 7.3004,22.25313 -10e-5,11.72763 -3.9875,20.78719 -11.9621,27.17872 -7.9749,6.39155 -19.3213,9.58732 -34.0394,9.58732 l -47.145,0 0,-32.36819 -16.7997,0 0,-12.66581 16.7997,0 0,-86.28584" />
      </g>
      <g
         transform="matrix(0.23850056,0,0,0.23850056,-1145.6165,338.29641)"
         id="text3011"
         style="font-size:199.27139282px;font-style:normal;font-weight:normal;line-height:125%;letter-spacing:0px;word-spacing:0px;fill:#000000;fill-opacity:1;stroke:none;font-family:Sans">
        <path
           inkscape:connector-curvature="0"
           id="path3071"
           style="font-variant:normal;font-weight:300;font-stretch:normal;font-family:Source Code Pro;-inkscape-font-specification:Source Code Pro Light"
           d="m -512.06514,436.87732 c 13.01899,10e-6 23.24825,-2.45767 30.68779,-7.37304 7.57222,-5.04819 11.35837,-12.95261 11.35847,-23.71329 -10e-5,-9.56498 -3.6534,-16.67232 -10.95992,-21.32204 -7.3067,-4.6496 -17.66881,-6.97443 -31.08634,-6.9745 l -26.10455,0 0,24.70965 32.6805,0 0,6.57596 -32.6805,0 0,28.09726 26.10455,0 m -26.10455,-66.35737 22.11912,0 c 13.55039,7e-5 23.24825,-2.12548 29.09362,-6.37668 5.84521,-4.38389 8.76785,-10.95984 8.76794,-19.72787 -9e-5,-8.50214 -3.122,-14.61312 -9.36575,-18.33297 -6.11107,-3.85246 -15.21112,-5.77875 -27.30018,-5.77887 l -23.31475,0 0,50.21639 m 45.83242,3.38761 c 9.69778,1.4614 17.33651,4.84901 22.91621,10.16285 5.57949,5.31395 8.36929,12.55414 8.36939,21.72058 -10e-5,12.75339 -4.38407,22.38483 -13.15191,28.89435 -8.76803,6.37669 -20.59145,9.56503 -35.47031,9.56503 l -37.66229,0 0,-35.47031 -15.54317,0 0,-5.77887 15.54317,-0.79709 0,-89.27358 35.07177,0 c 13.15184,1.3e-4 23.64679,2.59066 31.48488,7.77158 7.83791,5.18118 11.75691,13.21845 11.75701,24.11184 -1e-4,6.77532 -1.99281,12.68703 -5.97814,17.73516 -3.85267,5.04828 -9.63154,8.56874 -17.33661,10.56138 l 0,0.79708" />
      </g>
      <g
         transform="matrix(0.23850056,0,0,0.23850056,-1145.6165,338.29641)"
         id="text3015"
         style="font-size:201.75772095px;font-style:normal;font-weight:normal;line-height:125%;letter-spacing:0px;word-spacing:0px;fill:#000000;fill-opacity:1;stroke:none;font-family:Sans">
        <path
           inkscape:connector-curvature="0"
           id="path3068"
           style="font-variant:normal;font-weight:bold;font-stretch:normal;font-family:Linux Biolinum;-inkscape-font-specification:Linux Biolinum Bold"
           d="m -1457.4271,332.73193 0,35.2682 15.7624,0 c 8.0781,7e-5 13.5292,-1.64184 16.3534,-4.92573 2.8896,-3.28373 4.3345,-8.7677 4.3346,-16.45192 -10e-5,-8.47215 -1.5106,-14.41585 -4.5317,-17.83113 -3.0212,-3.48073 -7.5528,-5.22115 -13.595,-5.22127 -7.8155,1.2e-4 -12.8397,0.65688 -15.0727,1.97029 -2.1674,1.31364 -3.251,3.71083 -3.251,7.19156 m -13.792,-19.21033 c 4.7287,1.3e-4 10.9022,-0.0984 18.5207,-0.29554 7.6184,-0.1969 12.3471,-0.29542 14.1861,-0.29555 8.8663,1.3e-4 16.5504,0.98528 23.0524,2.95544 6.5676,1.90474 11.5261,4.49895 14.8757,7.78265 3.3494,3.21825 5.8123,6.50207 7.3886,9.85145 1.5761,3.3496 2.3642,6.89612 2.3643,10.63956 -10e-5,5.25421 -2.0689,10.37696 -6.2064,15.36827 -4.072,4.99148 -8.932,8.83354 -14.5801,11.5262 9.6543,2.82415 17.5026,7.19162 23.545,13.10243 6.0421,5.91092 9.0632,13.36518 9.0633,22.36279 -1e-4,9.98283 -4.5646,18.78345 -13.6935,26.40189 -9.1291,7.55278 -22.9212,11.32917 -41.3761,11.32917 -6.305,0 -12.9383,-0.0985 -19.9,-0.29555 -6.896,-0.19702 -12.6427,-0.29554 -17.24,-0.29554 l -17.1415,0.59109 -0.197,-0.59109 c 1.3791,-9.19468 2.1673,-20.35964 2.3643,-33.49493 l -15.6638,0 c -1.7733,3e-5 -2.6271,-1.08363 -2.5614,-3.25098 0,-1.31349 0.4597,-2.62702 1.3792,-3.94058 0.9195,-1.37916 2.0031,-2.06876 3.251,-2.06881 l 13.6935,0 0,-46.99142 c 0,-15.49951 -0.821,-28.96315 -2.4628,-40.39095 l 0.394,-0.59109 c 6.699,0.39419 12.3471,0.59122 16.9445,0.59109 m 13.792,96.64274 0,13.89054 c 0,3.48087 1.1822,5.94373 3.5466,7.38859 2.4299,1.44489 7.0929,2.16733 13.989,2.16732 6.5676,10e-6 11.8217,-0.49256 15.7623,-1.47772 4.0062,-1.05081 6.8631,-2.75839 8.5708,-5.12275 1.7732,-2.36433 2.8897,-4.663 3.3495,-6.89602 0.5253,-2.29864 0.788,-5.54962 0.7881,-9.75293 -10e-5,-21.14773 -9.0962,-31.68877 -27.2885,-31.62316 l -18.7178,0 0,22.16576 20.5896,0 c 2.0359,5e-5 3.021,1.01803 2.9554,3.05395 -10e-5,1.31357 -0.5255,2.69277 -1.5762,4.13761 -1.0509,1.37924 -2.2003,2.06884 -3.448,2.06881 l -18.5208,0" />
      </g>
      <g
         transform="matrix(0.23850056,0,0,0.23850056,-1145.6165,338.29641)"
         id="text3019"
         style="font-size:208.44419861px;font-style:normal;font-weight:normal;line-height:125%;letter-spacing:0px;word-spacing:0px;fill:#000000;fill-opacity:1;stroke:none;font-family:Sans">
        <path
           inkscape:connector-curvature="0"
           id="path3065"
           style="font-variant:normal;font-stretch:normal;font-family:Ubuntu Mono;-inkscape-font-specification:Ubuntu Mono"
           d="m -733.84073,444.25035 c -2.08448,0 -4.44685,-0.0695 -7.0871,-0.20844 -2.64033,-0.13897 -5.3501,-0.34741 -8.12933,-0.62534 -2.77928,-0.13896 -5.48905,-0.41688 -8.12932,-0.83377 -2.64031,-0.41689 -5.00268,-0.90326 -7.0871,-1.45911 l 0,-27.93152 -11.04754,0 0,-12.92355 11.04754,0 0,-84.21145 c 2.08442,-0.55572 4.44679,-1.04209 7.0871,-1.45911 2.64027,-0.41676 5.28056,-0.69469 7.92088,-0.83378 2.77922,-0.27779 5.489,-0.48624 8.12932,-0.62533 2.64026,-0.13883 5.00262,-0.20831 7.08711,-0.20844 6.11431,1.3e-4 11.7423,0.55598 16.88398,1.66755 5.28052,1.11183 9.86628,2.98783 13.75731,5.62799 3.89088,2.64042 6.87858,6.11448 8.9631,10.42221 2.22332,4.30796 3.33502,9.65802 3.33511,16.05021 -9e-5,3.05727 -0.48646,6.04497 -1.45911,8.9631 -0.97282,2.77934 -2.36245,5.41963 -4.16888,7.92088 -1.66764,2.5014 -3.68259,4.72481 -6.04488,6.67021 -2.22348,1.80659 -4.65533,3.19621 -7.29555,4.16888 7.08703,1.94555 12.99294,5.55858 17.71776,10.8391 4.8636,5.14168 7.29545,11.88137 7.29554,20.21909 -9e-5,12.92357 -3.89105,22.65095 -11.67287,29.18219 -7.64303,6.39229 -20.01071,9.58843 -37.10307,9.58843 m -13.13198,-61.28259 0,17.30086 22.72041,0 0,12.92355 -22.72041,0 0,15.84175 c 1.38959,0.27794 3.05714,0.48639 5.00266,0.62534 2.0844,0.13897 5.14158,0.20845 9.17154,0.20844 3.89091,10e-6 7.71238,-0.34739 11.46443,-1.04222 3.75194,-0.6948 7.01756,-1.94546 9.79688,-3.752 2.77919,-1.94545 5.00259,-4.44678 6.67021,-7.50399 1.80644,-3.05715 2.7097,-7.01759 2.70978,-11.88132 -8e-5,-4.3078 -0.76437,-7.92083 -2.29289,-10.83909 -1.52866,-2.91817 -3.6131,-5.21106 -6.25332,-6.87866 -2.64036,-1.80646 -5.69754,-3.05713 -9.17155,-3.752 -3.47412,-0.83372 -7.08715,-1.2506 -10.8391,-1.25066 l -16.25864,0 m 0,-14.17421 12.2982,0 c 3.1961,8e-5 6.39224,-0.34733 9.58844,-1.04222 3.19608,-0.69474 6.04482,-1.80644 8.54621,-3.33511 2.50126,-1.52851 4.51622,-3.61295 6.04488,-6.25332 1.52852,-2.64021 2.29282,-5.97531 2.29289,-10.00532 -7e-5,-3.7519 -0.69489,-6.94804 -2.08444,-9.58844 -1.25074,-2.64018 -3.05725,-4.7941 -5.41955,-6.46177 -2.22347,-1.66744 -4.86376,-2.84862 -7.92088,-3.54355 -2.91827,-0.6947 -6.04493,-1.0421 -9.37999,-1.04222 -3.19619,1.2e-4 -6.04492,0.0696 -8.54621,0.20844 -2.50137,1.2e-4 -4.30788,0.13908 -5.41955,0.41689 l 0,40.64662" />
      </g>
      <g
         transform="matrix(0.23850056,0,0,0.23850056,-1145.6165,338.29641)"
         id="text3023"
         style="font-size:180.13598633px;font-style:normal;font-variant:normal;font-weight:normal;font-stretch:normal;line-height:125%;letter-spacing:0px;word-spacing:0px;fill:#000000;fill-opacity:1;stroke:none;font-family:DejaVu Sans;-inkscape-font-specification:DejaVu Sans">
        <path
           inkscape:connector-curvature="0"
           id="path3062"
           style="font-style:italic;font-family:DejaVu Serif;-inkscape-font-specification:DejaVu Serif Italic"
           d="m -1024.6923,444.25037 1.7591,-9.32345 16.7119,0 4.5737,-23.1327 -17.5914,0 2.111,-10.99462 17.5914,0 15.21656,-78.45767 -16.71186,0 1.84713,-9.4114 64.82432,0 c 13.25209,1.3e-4 22.69281,2.72679 28.32217,8.18 5.68776,5.39482 7.47622,13.48686 5.36537,24.27614 -1.5247,7.79895 -5.0723,14.01457 -10.6428,18.64689 -5.51207,4.63248 -12.87114,7.47642 -22.07721,8.53183 10.84793,1.40738 18.61746,4.9843 23.30861,10.73076 4.69093,5.68794 6.09824,13.34019 4.22194,22.95678 -2.52155,13.01767 -8.50262,22.60497 -17.94323,28.76195 -9.38217,6.15699 -22.78095,9.23549 -40.19636,9.23549 l -60.69034,0 m 49.25592,-75.81896 22.34109,0 c 9.61655,8e-5 17.00494,-1.84702 22.16517,-5.54129 5.16005,-3.69411 8.50241,-9.52859 10.0271,-17.50345 1.58312,-8.0333 0.49832,-13.86778 -3.25441,-17.50345 -3.69429,-3.69407 -10.3497,-5.54117 -19.96625,-5.54129 l -22.34108,0 -8.97162,46.08948 m -12.92968,66.49551 26.29915,0 c 10.55477,1e-5 18.70545,-2.28687 24.45205,-6.86065 5.80508,-4.57374 9.67518,-11.84485 11.61033,-21.81334 1.93496,-9.90978 0.90879,-17.12224 -3.07849,-21.63743 -3.92884,-4.5737 -11.19995,-6.86058 -21.81335,-6.86064 l -26.29915,0 -4.48581,23.04474 29.37765,0 -2.11097,10.99462 -29.37764,0 -4.57377,23.1327" />
      </g>
      <g
         transform="matrix(0.23850056,0,0,0.23850056,-1145.6165,338.29641)"
         id="text3031"
         style="font-size:180.13598633px;font-style:normal;font-weight:normal;line-height:125%;letter-spacing:0px;word-spacing:0px;fill:#000000;fill-opacity:1;stroke:none;font-family:Sans">
        <path
           inkscape:connector-curvature="0"
           id="path3059"
           style="font-variant:normal;font-stretch:normal;font-family:PT Sans Caption;-inkscape-font-specification:PT Sans Caption"
           d="m -304.29911,381.53701 0,17.67936 30.52109,0 0,12.66581 -30.52109,0 0,17.76732 28.49808,0 c 9.55792,1e-5 16.6238,-1.96436 21.19764,-5.89312 4.63231,-3.98736 6.94851,-10.05639 6.94861,-18.2071 -1e-4,-8.20928 -2.3163,-14.24899 -6.94861,-18.11915 -4.57384,-3.92869 -11.63972,-5.89306 -21.19764,-5.89312 l -28.49808,0 m 0,-54.00562 0,39.58067 26.29915,0 c 8.67836,7e-5 15.12853,-1.61247 19.35055,-4.83764 4.28049,-3.28364 6.42077,-8.26787 6.42086,-14.95269 -9e-5,-6.626 -2.14037,-11.5809 -6.42086,-14.86474 -4.22202,-3.28362 -10.67219,-4.92548 -19.35055,-4.9256 l -26.29915,0 m -17.76732,-14.60086 45.38583,0 c 13.5453,1.3e-4 23.98286,2.81475 31.3127,8.44387 7.32965,5.62937 10.99452,13.63345 10.99463,24.01227 -1.1e-4,8.0335 -1.87652,14.42504 -5.62925,19.17463 -3.75293,4.74976 -9.2649,7.71097 -16.53592,8.88366 8.73697,1.87649 15.50965,5.80523 20.31807,11.78624 4.86685,5.9225 7.30032,13.3402 7.30043,22.25313 -1.1e-4,11.72763 -3.98749,20.78719 -11.96215,27.17872 -7.97486,6.39155 -19.32131,9.58732 -34.03937,9.58732 l -47.14497,0 0,-32.36819 -16.79979,0 0,-12.66581 16.79979,0 0,-86.28584" />
      </g>
    </g>
  </g>
</svg>
